<svg width="26" height="19" viewBox="0 0 26 19" fill="none" xmlns="http://www.w3.org/2000/svg">
<path d="M19.4011 2.00171C19.4712 2.01047 19.5417 2.01704 19.6114 2.02872C19.7928 2.05902 19.9673 2.10648 20.098 2.24921C20.2203 2.38282 20.2951 2.54272 20.3554 2.71101C20.4397 2.94756 20.4904 3.19215 20.5288 3.43929C20.5941 3.85727 20.6255 4.27818 20.6445 4.70055C20.6606 5.06049 20.666 5.4208 20.6642 5.78111C20.6628 6.08008 20.6595 6.37906 20.6503 6.67804C20.6398 7.02302 20.6251 7.36836 20.6065 7.71297C20.5872 8.0678 20.5613 8.42227 20.5375 8.7771C20.5339 8.8293 20.5313 8.88187 20.5229 8.93371C20.5087 9.02424 20.5346 9.10966 20.5485 9.19691C20.5646 9.2973 20.5835 9.39733 20.5981 9.49808C20.6018 9.5229 20.6102 9.52692 20.6328 9.52765C20.8876 9.53824 21.1413 9.56014 21.3936 9.59847C21.7747 9.65615 22.15 9.74194 22.5187 9.85547C22.538 9.86131 22.5577 9.86715 22.5756 9.87591C22.6267 9.90147 22.6483 9.96024 22.6282 10.0135C22.6088 10.0639 22.5545 10.0942 22.5012 10.0792C22.3095 10.0252 22.1186 9.96936 21.9244 9.92519C21.6334 9.85875 21.3399 9.80765 21.0424 9.77844C20.9219 9.76676 20.8018 9.75727 20.681 9.75143C20.6449 9.7496 20.6295 9.75471 20.635 9.79706C20.6613 10.011 20.6741 10.2264 20.6817 10.4417C20.6912 10.7071 20.6836 10.9722 20.6649 11.2368C20.65 11.4478 20.6262 11.6574 20.5916 11.8658C20.5868 11.8943 20.5941 11.9096 20.6197 11.9242C20.792 12.0221 20.9559 12.1334 21.1147 12.2517C21.1742 12.2959 21.1888 12.3638 21.1505 12.4152C21.1103 12.4689 21.0453 12.4758 20.9847 12.4313C20.85 12.3316 20.712 12.2367 20.5682 12.1509C20.5609 12.1465 20.5529 12.1433 20.5434 12.1385C20.4824 12.4386 20.4083 12.7328 20.3061 13.0183C20.1619 13.4202 19.9447 13.7827 19.6877 14.1218C19.2201 14.7395 18.6411 15.2305 17.9767 15.6237C17.3294 16.0066 16.6355 16.2746 15.9094 16.4633C15.5166 16.5655 15.1183 16.6425 14.7168 16.6984C14.3678 16.747 14.017 16.7809 13.6647 16.7995C13.5336 16.8065 13.4029 16.8148 13.2719 16.8152C13.2204 16.8232 13.1682 16.8167 13.1167 16.8192C13.101 16.82 13.085 16.8149 13.07 16.8236H12.4483C12.4333 16.8145 12.4169 16.8192 12.4016 16.8192C12.2296 16.8211 12.0573 16.8181 11.8858 16.8072C11.6708 16.7937 11.4557 16.7747 11.2414 16.7502C10.9107 16.7126 10.5822 16.6634 10.2558 16.5973C9.70238 16.4852 9.16137 16.3308 8.63789 16.1187C8.17938 15.9329 7.74168 15.7069 7.331 15.4302C7.09371 15.2703 6.86774 15.0951 6.65419 14.9042C6.31396 14.6001 6.01571 14.2598 5.76272 13.8802C5.55537 13.5692 5.38197 13.2406 5.27173 12.8814C5.20492 12.6635 5.14359 12.4444 5.09869 12.221C5.09723 12.2137 5.09577 12.2068 5.09431 12.1995C5.08482 12.1579 5.083 12.1568 5.04759 12.1779C4.92347 12.252 4.80446 12.3342 4.68837 12.42C4.67414 12.4302 4.66063 12.4415 4.64566 12.4506C4.58835 12.486 4.51935 12.4755 4.47993 12.4258C4.43868 12.3736 4.44452 12.3032 4.49854 12.2568C4.5606 12.2035 4.6296 12.159 4.6964 12.1126C4.79095 12.0469 4.88842 11.9848 4.98845 11.9279C5.02386 11.9078 5.03663 11.8855 5.0297 11.8435C4.99465 11.626 4.97275 11.4069 4.95632 11.1872C4.9377 10.9335 4.93661 10.6798 4.94245 10.426C4.9472 10.2223 4.96362 10.0186 4.9848 9.81568C4.98991 9.76676 4.98808 9.76603 4.93624 9.76603C4.80628 9.7664 4.67742 9.78136 4.54856 9.79487C4.20103 9.83174 3.85897 9.89745 3.52057 9.98433C3.40886 10.0132 3.29752 10.0435 3.188 10.0785C3.1588 10.088 3.12996 10.099 3.0982 10.0942C3.04344 10.0862 3.01533 10.0588 3 9.99893V9.94637C3.00803 9.88212 3.05439 9.85875 3.10879 9.84269C3.44902 9.74121 3.79326 9.65724 4.14408 9.60103C4.39633 9.5605 4.64931 9.52875 4.90485 9.52144C4.92091 9.52108 4.93661 9.51816 4.95267 9.51597C5.00062 9.50964 5.02799 9.48214 5.03481 9.43347C5.0516 9.31628 5.07204 9.19983 5.09541 9.08411C5.10453 9.03921 5.10526 8.99504 5.10125 8.94941C5.08993 8.81726 5.08044 8.68474 5.07058 8.55259C5.05927 8.4 5.04905 8.24704 5.03919 8.09445C5.03152 7.978 5.02495 7.86155 5.01875 7.74509C5.01035 7.58483 5.00451 7.42458 4.99392 7.26468C4.98918 7.18912 4.98735 7.11282 4.98589 7.03726C4.98334 6.90438 4.97713 6.77186 4.97275 6.63935C4.96727 6.46266 4.97275 6.28597 4.96399 6.11002C4.95194 5.87931 4.9545 5.64859 4.95924 5.41861C4.96399 5.19848 4.96399 4.97799 4.9753 4.75823C4.99976 4.27745 5.03006 3.79704 5.11475 3.32174C5.16148 3.05963 5.22026 2.80081 5.32868 2.55586C5.39366 2.40911 5.47652 2.27331 5.60539 2.17292C5.73024 2.07545 5.87808 2.03748 6.0314 2.01485C6.1004 2.00463 6.17049 2.01047 6.23985 2.00134H6.56402C6.61549 2.01302 6.66806 2.00682 6.72026 2.00864C6.91921 2.01594 7.11488 2.0477 7.31019 2.08129C7.76942 2.1605 8.22136 2.27221 8.67001 2.39742C9.1256 2.52446 9.5768 2.6661 10.0247 2.81687C10.4672 2.96618 10.9067 3.12425 11.3422 3.29254C11.3802 3.30714 11.4167 3.31115 11.4572 3.30495C11.662 3.27355 11.8675 3.25092 12.0738 3.23157C12.3906 3.20164 12.7082 3.19142 13.0262 3.19872C13.2007 3.20273 13.3756 3.21441 13.5497 3.22975C13.7705 3.24946 13.9907 3.27574 14.2097 3.3086C14.2338 3.31225 14.2561 3.30714 14.278 3.29838C14.5711 3.18667 14.865 3.07715 15.161 2.97275C15.4721 2.86323 15.7849 2.75883 16.0989 2.65771C16.3905 2.56389 16.6844 2.47628 16.9794 2.39377C17.4408 2.26491 17.9055 2.15174 18.3779 2.0718C18.602 2.03383 18.8273 2.00098 19.0561 2.00536C19.0635 2.00536 19.0708 2.00645 19.077 2.00098C19.185 2.00098 19.2931 2.00098 19.4011 2.00098V2.00171Z" fill="#1A1A1A"/>
<path d="M13.0703 16.8228C13.1371 16.8088 13.2047 16.814 13.2722 16.8143C13.2722 16.8173 13.2722 16.8199 13.2718 16.8228H13.0703Z" fill="#98908B"/>
<path d="M20.329 11.2712C20.3254 11.3982 20.3068 11.5234 20.2903 11.649C20.2863 11.6789 20.2878 11.71 20.2732 11.7399C20.0939 11.6556 19.9114 11.5815 19.7227 11.5212C19.3868 11.4143 19.0441 11.3493 18.691 11.3365C18.5114 11.3299 18.3329 11.3391 18.1555 11.3664C18.0697 11.3796 18.0332 11.4168 18.035 11.4876C18.0365 11.5519 18.0964 11.6023 18.1595 11.5913C18.5655 11.5198 18.9663 11.5592 19.3638 11.6508C19.6551 11.718 19.9333 11.8217 20.2024 11.9513C20.2286 11.964 20.2396 11.9754 20.2334 12.006C20.1684 12.3313 20.0921 12.654 19.9731 12.9639C19.8198 13.3629 19.592 13.7192 19.324 14.05C18.8254 14.6651 18.2106 15.1367 17.513 15.5032C16.8658 15.8435 16.1795 16.0734 15.4669 16.2286C15.1113 16.306 14.7525 16.3644 14.3907 16.4056C14.1012 16.4389 13.811 16.4608 13.5201 16.4761C13.1791 16.494 12.8378 16.4954 12.4968 16.4896C12.1953 16.4845 11.8941 16.4673 11.5937 16.4411C11.2005 16.4064 10.8095 16.3553 10.4219 16.2804C9.41576 16.0862 8.46115 15.7569 7.5967 15.1944C6.94837 14.7724 6.40152 14.2471 5.98353 13.5918C5.74442 13.2173 5.58854 12.8102 5.48669 12.3802C5.45676 12.2543 5.42902 12.1279 5.40346 12.0009C5.39872 11.9779 5.40273 11.9673 5.42391 11.9571C5.75647 11.7965 6.10254 11.6771 6.46686 11.611C6.70451 11.568 6.94362 11.5497 7.18456 11.5588C7.27911 11.5625 7.37329 11.5716 7.46638 11.5895C7.53136 11.6023 7.58758 11.5676 7.60291 11.5052C7.61678 11.4475 7.57918 11.3891 7.51566 11.3748C7.40432 11.35 7.29115 11.342 7.17762 11.338C6.55265 11.3164 5.96418 11.4639 5.40054 11.7246C5.37024 11.7388 5.36002 11.7421 5.35381 11.7005C5.28993 11.2588 5.27241 10.8152 5.2892 10.3699C5.2965 10.1705 5.3122 9.97121 5.33666 9.77299C5.33958 9.74926 5.34724 9.74488 5.36842 9.74561C6.0507 9.76788 6.71181 9.88762 7.33605 10.1749C7.42586 10.2162 7.51347 10.2618 7.59743 10.3144C7.6584 10.3523 7.72374 10.3406 7.75842 10.287C7.7942 10.2315 7.77704 10.1651 7.71389 10.1264C7.49522 9.99129 7.26012 9.89163 7.01773 9.8084C6.67421 9.69049 6.32157 9.61273 5.96126 9.56929C5.77728 9.54702 5.59329 9.53205 5.40821 9.5284C5.37572 9.52767 5.36805 9.51709 5.37426 9.48861C5.37827 9.46999 5.38083 9.45138 5.38411 9.43276C5.42683 9.40611 5.47647 9.41049 5.52283 9.40392C6.1029 9.32215 6.67385 9.19876 7.23384 9.02536C7.75222 8.86474 8.2527 8.66067 8.73275 8.40769C9.21572 8.15325 9.66765 7.85135 10.0849 7.49907C10.2857 7.32969 10.4784 7.15154 10.6588 6.96062C10.8449 6.76349 11.0216 6.55796 11.1874 6.34258C11.4378 6.01659 11.6576 5.67125 11.8547 5.31094C11.8989 5.23026 11.943 5.14959 11.9828 5.06672C11.9905 5.05102 11.9963 5.03423 12.0098 5.02218C12.0431 5.01488 12.0405 5.04299 12.0449 5.06015C12.0832 5.21457 12.1259 5.36789 12.1719 5.51975C12.2964 5.9319 12.4399 6.33747 12.6144 6.73136C12.6899 6.90221 12.7688 7.07159 12.8549 7.23696C13.082 7.67247 13.343 8.08608 13.6471 8.47303C13.8552 8.73733 14.087 8.97936 14.3287 9.2119C14.4356 9.31485 14.5502 9.41013 14.6663 9.50285C14.6831 9.51636 14.7036 9.52658 14.7116 9.54848C14.7079 9.566 14.6937 9.5744 14.6809 9.58389C14.6298 9.62259 14.5809 9.6642 14.5338 9.70764C14.4575 9.77773 14.4298 9.86571 14.4604 9.96574C14.4907 10.0639 14.5597 10.1223 14.6623 10.1359C14.989 10.1786 15.315 10.2246 15.6381 10.2884C15.8455 10.3293 16.0524 10.372 16.2514 10.4465C16.2828 10.4582 16.3142 10.471 16.3423 10.4889C16.3887 10.5188 16.4394 10.5349 16.4938 10.5414C16.6971 10.6199 16.9012 10.6962 17.1089 10.7626C17.1228 10.767 17.137 10.7714 17.145 10.7849C17.1483 10.8035 17.1326 10.8094 17.1217 10.8181C17.0585 10.8703 17.0425 10.9342 17.075 11.0094C17.1312 11.1394 17.1943 11.2657 17.2538 11.3938C17.3159 11.5274 17.3794 11.66 17.4407 11.7939C17.4907 11.9031 17.6076 11.9363 17.6915 11.8637C17.7357 11.8253 17.754 11.7768 17.739 11.7184C17.7284 11.6771 17.7087 11.6391 17.6904 11.6015C17.5816 11.3756 17.478 11.1474 17.3699 10.9214C17.3593 10.8992 17.3298 10.874 17.3615 10.8452C17.4539 10.8608 17.5422 10.8911 17.6328 10.9149C18.027 11.0182 18.4264 11.0959 18.8298 11.1522C19.0276 11.1799 19.2266 11.1996 19.4255 11.2186C19.5413 11.2299 19.6581 11.2347 19.7745 11.2401C19.945 11.2478 20.1151 11.258 20.286 11.2569C20.302 11.2569 20.3185 11.2573 20.3305 11.2708L20.329 11.2712Z" fill="#FEFEFE"/>
<path d="M14.7077 9.54627C14.5916 9.46267 14.485 9.36776 14.3792 9.27211C13.7206 8.67671 13.2125 7.96814 12.8127 7.1789C12.4729 6.50829 12.2239 5.80411 12.037 5.07692C12.0322 5.05794 12.0333 5.03567 12.0162 5.02107C12.0118 4.98529 12.0341 4.95755 12.0479 4.92871C12.2327 4.54577 12.382 4.14932 12.5116 3.74484C12.5273 3.69629 12.5415 3.64737 12.5557 3.59845C12.5612 3.5791 12.5645 3.55793 12.5824 3.54479C12.8726 3.53712 13.1625 3.54369 13.4519 3.56742C13.7469 3.59152 14.04 3.62693 14.3317 3.67621C14.9122 3.77477 15.4805 3.92006 16.0329 4.12486C16.667 4.35995 17.2638 4.66514 17.8085 5.06779C18.5488 5.61464 19.1278 6.29693 19.5359 7.12377C19.7999 7.65858 19.9882 8.21966 20.1288 8.79791C20.1843 9.02534 20.2281 9.25532 20.2642 9.48677C20.2697 9.52181 20.2631 9.52729 20.2303 9.52838C19.6443 9.54481 19.0727 9.64155 18.5211 9.84452C18.3174 9.91935 18.1192 10.007 17.9337 10.1212C17.9071 10.1377 17.883 10.1559 17.8705 10.1855C17.8527 10.2289 17.8647 10.2786 17.8994 10.3092C17.9359 10.3417 17.9888 10.3476 18.033 10.3198C18.1728 10.2322 18.3214 10.1621 18.474 10.1001C18.8109 9.96316 19.1599 9.8719 19.5188 9.81458C19.7637 9.77552 20.0101 9.75654 20.2576 9.74595C20.2825 9.74486 20.3007 9.74376 20.3044 9.77881C20.3405 10.1168 20.362 10.456 20.3555 10.7958C20.3525 10.9546 20.3496 11.1134 20.3292 11.2711C20.0291 11.2715 19.729 11.2573 19.4301 11.2325C19.0851 11.204 18.7416 11.1594 18.4006 11.0977C18.0469 11.0339 17.6975 10.9517 17.3522 10.8517C17.339 10.8539 17.3303 10.8462 17.3219 10.8386C17.2788 10.7991 17.2288 10.7834 17.1711 10.794C17.1613 10.7958 17.151 10.7966 17.1426 10.7885C16.9382 10.7188 16.733 10.6498 16.5326 10.5684C16.5191 10.5629 16.5063 10.5564 16.4932 10.5502C16.4983 10.5283 16.5177 10.5334 16.5323 10.5301C16.6316 10.5089 16.6965 10.4487 16.7228 10.3519C16.7495 10.2523 16.7104 10.1486 16.6286 10.0924C16.5166 10.015 16.3892 9.97229 16.2603 9.93432C16.008 9.85985 15.7507 9.80984 15.4915 9.7653C15.4652 9.76092 15.4236 9.76603 15.4207 9.7361C15.4174 9.7058 15.4597 9.70434 15.4838 9.69448C15.7299 9.59336 15.9869 9.53714 16.2501 9.50575C16.3326 9.49589 16.4151 9.48932 16.4983 9.4875C16.6097 9.48494 16.7082 9.39769 16.7254 9.29146C16.7455 9.16661 16.6827 9.05527 16.5702 9.01439C16.545 9.00526 16.5191 9.00417 16.4928 9.0038C16.1617 9.00197 15.8405 9.06476 15.5251 9.16041C15.2513 9.24327 14.9936 9.36155 14.7588 9.52692C14.7439 9.53751 14.7289 9.55138 14.7074 9.54627H14.7077Z" fill="#F0BA61"/>
<path d="M12.5825 3.54443C12.4504 4.00842 12.2817 4.45853 12.0766 4.89513C12.0568 4.93711 12.0364 4.97909 12.0167 5.02107C11.8017 5.45695 11.552 5.87201 11.2618 6.26226C10.7649 6.93067 10.1724 7.49942 9.48432 7.96815C8.69361 8.50661 7.82807 8.88006 6.90813 9.13231C6.42188 9.26555 5.9276 9.36047 5.42821 9.42873C5.4136 9.43056 5.399 9.43129 5.38477 9.43275C5.42492 9.17319 5.47822 8.91656 5.5432 8.66248C5.61767 8.37227 5.70638 8.08643 5.81042 7.80534C5.90205 7.5582 6.00463 7.3158 6.12436 7.08071C6.28024 6.77406 6.45912 6.48165 6.66756 6.20786C6.77744 6.0633 6.89536 5.92531 7.01838 5.79097C7.12899 5.67051 7.24544 5.55661 7.36591 5.44673C7.54223 5.28647 7.72877 5.13862 7.92298 5.00027C8.25628 4.76335 8.60965 4.56184 8.97835 4.38698C9.20432 4.27965 9.43613 4.18547 9.67159 4.10078C10.0012 3.98177 10.3371 3.88393 10.678 3.80362C10.912 3.7485 11.1479 3.70177 11.3855 3.6649C11.5586 3.63789 11.732 3.61306 11.9061 3.59518C12.0375 3.58167 12.1686 3.56853 12.3003 3.56013C12.3945 3.55429 12.4883 3.54662 12.5829 3.5448L12.5825 3.54443Z" fill="#434344"/>
<path d="M10.7514 3.44537C10.6415 3.47202 10.5312 3.49684 10.4221 3.52531C10.0629 3.61804 9.70988 3.72865 9.36381 3.86262C9.11119 3.96082 8.86368 4.06997 8.62202 4.1919C8.25258 4.37844 7.90177 4.59602 7.57176 4.84571C7.40858 4.9691 7.25161 5.10089 7.10157 5.24107C6.99789 5.33781 6.89604 5.436 6.79967 5.53895C6.61386 5.73717 6.44192 5.94744 6.28458 6.1694C6.07066 6.47057 5.89069 6.79145 5.73371 7.12547C5.62164 7.36385 5.52454 7.60844 5.44021 7.85814C5.42415 7.90632 5.40589 7.95378 5.38582 8.0089C5.38071 7.98992 5.3734 7.97714 5.37413 7.96437C5.37815 7.89574 5.36647 7.82784 5.36391 7.75957C5.35625 7.55186 5.3442 7.34414 5.33544 7.13642C5.33106 7.0291 5.32668 6.92141 5.32266 6.81408C5.31573 6.62498 5.31573 6.43516 5.30952 6.24606C5.2982 5.91495 5.30404 5.58385 5.30587 5.25275C5.3066 5.1425 5.30624 5.03153 5.31281 4.92091C5.32047 4.79168 5.32412 4.66246 5.33069 4.53323C5.33836 4.37224 5.35004 4.21162 5.36574 4.05136C5.39239 3.78195 5.42269 3.51254 5.47927 3.24714C5.52417 3.03505 5.57893 2.8266 5.67457 2.62984C5.74978 2.47469 5.86623 2.3889 6.03415 2.3597C6.21193 2.32903 6.39117 2.32502 6.56932 2.3356C6.96321 2.3597 7.3509 2.42906 7.73603 2.51521C8.11715 2.60063 8.49388 2.70175 8.86879 2.8109C9.29591 2.93539 9.71827 3.07447 10.1392 3.2183C10.344 3.28803 10.5473 3.3625 10.7514 3.43515C10.7514 3.43843 10.7517 3.44172 10.7521 3.445L10.7514 3.44537Z" fill="#434344"/>
<path d="M20.2598 8.01809C20.1514 7.70342 20.0334 7.39531 19.8922 7.09633C19.6136 6.50677 19.2548 5.9716 18.8028 5.49995C18.3056 4.98158 17.7321 4.56688 17.0973 4.23395C16.4117 3.87437 15.6857 3.62686 14.9322 3.45602C14.915 3.452 14.8982 3.44835 14.873 3.44251C15.0096 3.39323 15.1384 3.34541 15.268 3.29978C15.8645 3.09024 16.465 2.89384 17.0743 2.72445C17.5325 2.59705 17.9943 2.48388 18.4641 2.40613C18.7605 2.35684 19.0588 2.32253 19.3599 2.33457C19.4881 2.33969 19.6147 2.35611 19.7374 2.39809C19.821 2.42657 19.8761 2.48717 19.921 2.55872C20.028 2.72847 20.0831 2.91866 20.1291 3.11141C20.1963 3.39067 20.2339 3.67505 20.262 3.96052C20.2959 4.30294 20.3142 4.64609 20.3251 4.98997C20.3302 5.15607 20.3288 5.32254 20.3335 5.48864C20.3423 5.79784 20.3324 6.10704 20.3273 6.41624C20.3207 6.80247 20.3039 7.18833 20.2846 7.57419C20.2773 7.7224 20.2678 7.87025 20.2594 8.01809H20.2598Z" fill="#F0BB61"/>
<path d="M12.869 11.2345C13.3957 11.2345 13.9229 11.2378 14.4496 11.2327C14.6041 11.2312 14.7147 11.2973 14.8048 11.4108C14.8895 11.5174 14.93 11.6434 14.9439 11.777C14.9863 12.1833 14.8804 12.5567 14.6811 12.9057C14.4161 13.3701 14.0521 13.7355 13.5735 13.9797C13.3344 14.1016 13.0803 14.1706 12.8087 14.1586C12.5692 14.148 12.344 14.0805 12.1348 13.9669C11.5376 13.6424 11.1138 13.1642 10.8801 12.5239C10.7936 12.2873 10.7586 12.0409 10.7871 11.789C10.8101 11.5872 10.8794 11.4068 11.0598 11.2893C11.1167 11.252 11.1788 11.2331 11.2488 11.2334C11.7888 11.2349 12.3287 11.2342 12.869 11.2342V11.2345Z" fill="#1B1C1C"/>
<path d="M10.2129 9.72933C10.0925 9.67201 9.96797 9.6304 9.84057 9.59645C9.6062 9.53439 9.36782 9.50117 9.12543 9.49022C8.98999 9.48401 8.8834 9.36391 8.88887 9.2303C8.89435 9.09048 9.0046 8.97878 9.14259 8.98316C9.77595 9.0036 10.3692 9.15802 10.897 9.52234C10.9668 9.57053 11.0314 9.62492 11.0949 9.68077C11.1836 9.75817 11.2208 9.85272 11.184 9.96625C11.146 10.0838 11.0551 10.1331 10.9361 10.1473C10.4984 10.2006 10.0629 10.266 9.63468 10.3744C9.50508 10.4072 9.37805 10.4448 9.25977 10.512C9.14295 10.5781 8.9951 10.531 8.92538 10.4153C8.85711 10.3025 8.88668 10.1539 8.99547 10.0769C9.10499 9.99947 9.23093 9.95785 9.3576 9.91952C9.6376 9.83483 9.9249 9.78299 10.2126 9.72933H10.2129Z" fill="#1B1B1B"/>
<path d="M14.7076 9.54526C14.846 9.45107 14.9884 9.36346 15.141 9.29337C15.4323 9.15939 15.7378 9.07434 16.0543 9.02579C16.1971 9.00388 16.3402 8.98782 16.4847 8.98855C16.6311 8.98928 16.7406 9.09588 16.7424 9.23971C16.7443 9.38463 16.6348 9.49378 16.4869 9.49889C16.1321 9.51167 15.7889 9.58103 15.4593 9.71428C15.4465 9.71939 15.4319 9.72158 15.4188 9.73837C15.4972 9.75261 15.5728 9.76538 15.6476 9.77962C15.9233 9.83292 16.1985 9.88695 16.461 9.98989C16.5154 10.0111 16.5676 10.0366 16.6169 10.068C16.7162 10.1315 16.7614 10.2359 16.7381 10.3458C16.7151 10.452 16.6267 10.5287 16.5103 10.5437C16.5048 10.5444 16.4997 10.547 16.4942 10.5488C16.453 10.5506 16.4124 10.5408 16.3785 10.5203C16.2452 10.4407 16.097 10.4035 15.9492 10.3674C15.6283 10.2892 15.3027 10.2348 14.9756 10.1899C14.8661 10.175 14.7558 10.1637 14.647 10.145C14.547 10.1279 14.4777 10.0669 14.4484 9.96945C14.4174 9.86723 14.4426 9.77524 14.5215 9.70259C14.5813 9.64747 14.6459 9.59746 14.7084 9.54489L14.7076 9.54526Z" fill="#1B1B1B"/>
<path d="M17.1428 10.7887C17.2264 10.7639 17.2957 10.7869 17.3523 10.8519C17.3906 10.9526 17.4414 11.0479 17.4866 11.1457C17.5684 11.3217 17.6517 11.4965 17.7338 11.6721C17.7772 11.7652 17.7458 11.8583 17.6568 11.901C17.5779 11.9386 17.4812 11.9047 17.4399 11.8185C17.3114 11.5487 17.1844 11.2786 17.0588 11.0074C17.0212 10.926 17.0511 10.8555 17.1424 10.7891L17.1428 10.7887Z" fill="#E9989B"/>
<path d="M8.52315 10.7067C8.64435 10.7067 8.7232 10.8264 8.67209 10.9363C8.54724 11.2042 8.42167 11.4722 8.29499 11.7394C8.23987 11.8559 8.10042 11.8752 8.01755 11.7799C7.97265 11.7281 7.96827 11.6657 7.99528 11.6076C8.1205 11.3364 8.24899 11.067 8.37713 10.7972C8.40597 10.7362 8.45489 10.7045 8.52388 10.707L8.52315 10.7067Z" fill="#E9989B"/>
<path d="M9.06684 10.8557C9.18366 10.8557 9.25703 10.9576 9.22053 11.0729C9.1351 11.3434 9.04895 11.6136 8.96207 11.8833C8.93432 11.9695 8.83905 12.0166 8.75508 11.9888C8.66674 11.96 8.62074 11.8724 8.64885 11.7837C8.73574 11.5121 8.82298 11.2408 8.91096 10.97C8.93578 10.8929 8.98835 10.8561 9.0672 10.8561L9.06684 10.8557Z" fill="#E9989B"/>
<path d="M16.9266 12.0674C16.8528 12.067 16.7973 12.0298 16.7743 11.9593C16.6849 11.6855 16.5966 11.4117 16.5097 11.1376C16.4823 11.0507 16.5301 10.9642 16.6155 10.9353C16.7002 10.9065 16.7882 10.947 16.8203 11.035C16.8536 11.1266 16.8813 11.2201 16.9109 11.3128C16.966 11.4844 17.0207 11.6563 17.0766 11.8275C17.0894 11.867 17.0978 11.9068 17.0879 11.9473C17.07 12.0217 17.0065 12.0681 16.9266 12.0674V12.0674Z" fill="#E9989B"/>
<path d="M9.84964 11.1231C9.84416 11.1804 9.82153 11.253 9.80473 11.3264C9.76385 11.5049 9.72296 11.6834 9.68098 11.8616C9.66163 11.9437 9.60578 11.993 9.53021 11.9966C9.45319 12.0003 9.3904 11.959 9.36411 11.8868C9.34769 11.8419 9.35791 11.7973 9.36813 11.7535C9.42033 11.5268 9.47253 11.3001 9.5262 11.0738C9.55577 10.9482 9.68646 10.8975 9.78758 10.9716C9.83175 11.0041 9.85146 11.0493 9.84964 11.1227V11.1231Z" fill="#E9989B"/>
<path d="M16.3737 11.8915C16.3744 11.9901 16.3215 12.0569 16.2455 12.0667C16.1455 12.0799 16.0721 12.031 16.0499 11.9353C16.0079 11.7542 15.967 11.5728 15.9254 11.3917C15.9122 11.3352 15.8984 11.2786 15.8856 11.222C15.8644 11.1282 15.9163 11.0373 16.0024 11.0172C16.0981 10.9946 16.1827 11.0486 16.2057 11.1475C16.2605 11.3823 16.3153 11.6174 16.3693 11.8521C16.3733 11.8689 16.3733 11.8868 16.3737 11.8915Z" fill="#E9989B"/>
<path d="M12.871 11.4557C13.3948 11.4557 13.9187 11.4575 14.4425 11.4539C14.5352 11.4531 14.5951 11.4933 14.6422 11.5627C14.7262 11.6871 14.7393 11.8295 14.7342 11.9733C14.72 12.3932 14.5513 12.7546 14.3023 13.0824C14.076 13.3799 13.8015 13.6227 13.4631 13.788C13.2495 13.8924 13.0265 13.9563 12.7852 13.9362C12.5106 13.9136 12.2664 13.8081 12.0419 13.6559C11.5911 13.35 11.2603 12.9473 11.0818 12.4282C11.0085 12.215 10.9803 11.9949 11.0143 11.77C11.0293 11.6703 11.0639 11.5784 11.1399 11.5072C11.176 11.4732 11.2162 11.4546 11.2691 11.4546C11.8032 11.4561 12.3372 11.4553 12.8713 11.4553L12.871 11.4557Z" fill="#DE6673"/>
</svg>
