<svg width="25" height="16" viewBox="0 0 25 16" fill="none" xmlns="http://www.w3.org/2000/svg">
<path d="M24.2697 6.20252C24.1652 5.15361 23.4536 4.21237 22.3192 3.62182C19.3213 1.3273 18.4097 1.01382 17.3862 1.14839C16.8071 1.22478 16.4042 1.39894 16.154 1.68076C14.344 0.975027 12.4832 1.00076 12.4627 1.00076C12.4445 1.00036 10.7892 0.951674 8.85721 1.70807C8.65812 1.49037 8.19383 1.23745 7.63495 1.19154C7.11683 1.14919 6.62127 1.19233 5.88427 1.54143C5.14608 1.89094 4.16447 2.546 2.70273 3.66497C1.67244 4.39563 1.05299 5.4576 1.00312 6.57775C0.961953 7.50434 1.33006 8.36959 2.01323 8.95143C2.57093 9.43076 3.4718 9.8143 4.15893 9.86536C4.30498 11.1838 4.81558 12.2952 5.67805 13.1684C6.37508 13.8737 7.30128 14.4263 8.43132 14.8106C10.0419 15.3584 11.6164 15.404 12.0965 15.404C12.19 15.404 12.2418 15.4024 12.245 15.402C12.2644 15.4028 14.1908 15.4629 16.1675 14.8075C17.3288 14.4223 18.2803 13.869 18.9951 13.1633C19.8865 12.2826 20.4102 11.1612 20.5519 9.82894C20.5847 9.83053 20.6176 9.83171 20.6508 9.83171C21.4567 9.83171 22.466 9.37455 23.0083 8.90829C23.9092 8.18197 24.3691 7.19561 24.2701 6.20252H24.2697Z" fill="#FEF4E3"/>
<path d="M16.1562 1.69308C16.4119 1.40097 16.8315 1.23236 17.3864 1.15913C18.4258 1.02218 19.335 1.35269 22.3115 3.63058C24.6504 4.8485 24.9152 7.35557 22.9998 8.90003C22.4303 9.38965 21.3624 9.86304 20.5407 9.81831" stroke="#1B1B1B" stroke-width="0.359996" stroke-linecap="round" stroke-linejoin="round"/>
<path d="M8.85325 1.72104C8.6597 1.50493 8.19106 1.24845 7.63296 1.20293C6.56942 1.11585 5.68438 1.39648 2.70787 3.67438C0.678151 5.11434 0.492515 7.64318 2.01956 8.94382C2.58913 9.43344 3.48446 9.80748 4.16723 9.85617" stroke="#1B1B1B" stroke-width="0.359996" stroke-linecap="round" stroke-linejoin="round"/>
<path d="M18.3664 3.31265C19.5843 4.68968 20.7318 6.87852 20.5414 9.81821C19.9287 15.6655 12.2444 15.3916 12.2444 15.3916C12.2444 15.3916 4.7766 15.6715 4.16388 9.82415C3.9731 6.88485 5.10038 4.8951 6.07328 3.76308C6.60961 3.13413 7.36877 2.43592 8.30447 1.95541C10.4866 0.941336 12.4617 1.01179 12.4617 1.01179C12.4617 1.01179 14.8746 0.966272 16.9007 2.03219" stroke="#1B1B1B" stroke-width="0.359996" stroke-linecap="round" stroke-linejoin="round"/>
<path d="M12.1664 8.3549C12.2416 8.3363 12.3651 8.32126 12.5246 8.35649C12.5828 8.36915 12.6188 8.42892 12.601 8.48592C12.5773 8.56112 12.5231 8.66166 12.4011 8.73211C12.3703 8.74992 12.3323 8.74913 12.3014 8.73172C12.2349 8.69412 12.1229 8.61218 12.0924 8.47602C12.0801 8.42259 12.113 8.36836 12.1664 8.3553V8.3549Z" fill="#191A1B"/>
<path d="M6.90386 10.1868C7.88953 10.1868 8.68857 9.77232 8.68857 9.26101C8.68857 8.7497 7.88953 8.33521 6.90386 8.33521C5.91819 8.33521 5.11914 8.7497 5.11914 9.26101C5.11914 9.77232 5.91819 10.1868 6.90386 10.1868Z" fill="#FAD5A2"/>
<path d="M17.8023 10.1868C18.788 10.1868 19.587 9.77232 19.587 9.26101C19.587 8.7497 18.788 8.33521 17.8023 8.33521C16.8166 8.33521 16.0176 8.7497 16.0176 9.26101C16.0176 9.77232 16.8166 10.1868 17.8023 10.1868Z" fill="#FAD5A2"/>
<path d="M8.55664 7.21863C8.55664 7.21863 9.33599 7.29977 9.86282 7.62948C10.0639 7.76208 9.99225 7.87726 9.85372 7.95207C9.41634 8.18837 8.66707 8.355 8.66707 8.355" stroke="#1B1B1B" stroke-width="0.559994" stroke-linecap="round" stroke-linejoin="round"/>
<path d="M8.55664 7.21863C8.55664 7.21863 9.33599 7.29977 9.86282 7.62948C10.0639 7.76208 9.99225 7.87726 9.85372 7.95207C9.41634 8.18837 8.66707 8.355 8.66707 8.355" stroke="#1B1B1B" stroke-width="0.559994" stroke-linecap="round" stroke-linejoin="round"/>
<path d="M16.1397 7.21863C16.1397 7.21863 15.3604 7.29977 14.8335 7.62948C14.6325 7.76208 14.7041 7.87726 14.8426 7.95207C15.28 8.18837 16.0293 8.355 16.0293 8.355" stroke="#1B1B1B" stroke-width="0.559994" stroke-linecap="round" stroke-linejoin="round"/>
<path d="M12.5295 9.68303C12.4468 9.68699 12.3641 9.68699 12.2814 9.68303L10.7614 9.6106C10.0688 9.6106 9.93142 10.2866 10.3098 10.8428C10.4369 11.0292 10.94 11.4808 11.7324 11.7124C12.1674 11.8394 12.6281 11.8457 13.0686 11.7389C14.0012 11.5129 14.3804 11.0391 14.5145 10.8428C14.8933 10.2866 14.756 9.6106 14.0629 9.6106L12.5295 9.68303V9.68303Z" fill="#D3626E" stroke="#1B1B1B" stroke-width="0.239997" stroke-miterlimit="10"/>
</svg>
