<svg xmlns="http://www.w3.org/2000/svg" viewBox="0 0 2929.35 1662.66"><path d="M966,1184.71c49.9-32.84,98.21-85.24,126.06-136.74,20.86-38.53,28.94-70,26.45-103-1.7-22.06,1.72-159.59-252.62-151.61-99.71,4-213.59,27.65-301.62,62.48-39.72,15.67-81.44,39.12-107.79,60.58-23.66,19.26-44.52,43.72-55.3,65.08a138.77,138.77,0,0,0-13.47,79.24c1.4,11.78,3.49,19.17,7.79,28.45,8.18,17.27,31.86,34,51.1,16.77,5.29-5,19.73-21.78,9-52.6-5.19-16.37-6.49-24.95-6.49-42.52-.1-13.77,0-14.77,2.7-20.36,4-8.68,10.38-17,20.86-27.25,10.88-10.68,17.06-15.77,31.54-26,45.21-31.74,113.38-62.08,154.2-68.77,5.89-.89,11-1.49,11.28-1.09s-.4,2.69-1.6,5.39c-6.69,14.77-7,20.56-6,100.3,1.2,90.53,1.2,300,0,345.14-1.49,57.19-2.3,50.85-8.08,107.59s102.47,108.71,244.63,81.25c29.34-5.69,61.38-15.85,91.69-28.84,23.15-11.08,43.85-26.06,59-41.83,53.57-62.1,14.6-144.38-36-181-23.66-17.37-50.8-31-82.14-41.62l-13.08-4.39,4.49-1.7C932.47,1204,954.73,1192.19,966,1184.71Zm-40.64,81.35c47.64,30.31,69.24,70.29,56.3,108.26-7.54,26.61-24.13,58.08-121.25,69.29-42.74,5.19-66.08-3.1-75.46-12.38-11.08-11.18-17.47-25.65-20.66-47.31-1.4-9.68-1.6-16.86-1.1-51.2.9-52.4,3.19-85.73,6.29-88.83,3-2.89,13-8.14,52-8.14C873.41,1235.75,910.2,1256,925.37,1266.06Zm-102.59-97.52c-17.16,3.49-51.1,2.39-56.89-1.9l-2.49-1.8-.6-129.65c-.6-135-.6-134.64-5-151.9-2.7-10.58-6-17.37-11.48-23.16-3.19-3.39-4.19-5.09-3.29-5.49,7.28-2.59,143.36-30.29,234.3,8.69,52,21.65,53.24,52.89,53.24,75.65-.1,26.35-6.88,50.7-22.35,79.85-13.18,24.65-28.65,44.91-52.7,68.86C912.81,1130.51,864.2,1160.15,822.78,1168.54Z" transform="translate(-386.65 -258.48)" style="fill:#080405;fill-rule:evenodd"/><path d="M3307.12,993.24c-17.32-21.65-156.7-19-155.9-26,.1-3.1,3.5-42.37,6.49-78.9q2.1-25.53,4.08-51.08c.8-10.46,5-25.07-5.43-31.77-12.71-8.19-27.4-12.91-42.12-15.94-7.5-1.54-15.1-2.63-22.72-3.42-5.91-.61-14.29-2.8-19.69.47-2.84,1.73-4.82,4.76-5.85,9.08-4.06,17.09-6.53,173.39-10,175.89-1.09.8-14.21-.89-33.28-.79-62,.3-81.44,3.1-87,12.38-4.19,6.78-1.86,29,7.72,31.71,30.32,8.66,108.26,13,108.26,13s-1.3,49.82-5.19,132.66c-2,42.41-2.92,85.83-2.76,120.52a14.28,14.28,0,0,0-9.59,3.58c-4.29,3.79-6.48,10.08-10.48,29.94-7.58,37.73-15.27,60.78-26.84,81.14-14.83,26-38.05,45.78-67.59,52.52-30.2,6.89-62.43-.15-84-23-19-20.1-27.39-46.63-28.27-75.37-.31-10.07.2-18.36.4-18.36s3.49.79,7.29,1.69c10.58,2.6,33.23,2.3,44.51-.5,34.24-8.48,66.17-38.42,87-81.54,14.08-29.14,22.86-61.08,25.06-90.82.79-11.28-1.7-34.24-5.19-47.41-10.09-38.83-43.32-71-79.85-77.35-10.28-1.8-26.15-1.8-35.93,0-23.16,4.19-40.92,14.07-60.78,33.93-21.26,21.16-34.84,43.12-48.91,79.35-13.67,35.13-22.26,71.06-27.15,114.18-2.59,23.25-2.39,68.77.5,90.22,4.29,31.74,10.18,52.5,21.16,74.56,20.76,41.92,55.49,68.77,99.91,77.45,29.94,5.79,67,3.89,90.92-4.69,51.88-18.59,90.32-63.22,109.62-113.88q2.72-7.15,5-14.47c12.33,68.86,37.74,114.35,75,134,33.31,17.54,68.1,9.09,94.79-16.08s44.53-58.61,57.12-92.86a487.16,487.16,0,0,0,15.88-53.19c4.4-18.13,9.54-37.23,9.24-56a59,59,0,0,0-2.06-15.41c-2.65-9.18-14-15.9-23.3-13.22-7,2-11,8.85-13.76,15.07-6.26,14.28-6.71,29.94-10.37,44.88-3.09,12.57-5.9,25.34-9.76,37.71-8.32,26.69-17.19,57.56-40.44,75.43-7.87,6.06-18.29,9.64-27.88,7.05-14-3.79-21.12-18.59-25-31.38-9.3-30.51-9.32-62.22-9.54-93.8-.2-29.94.13-59.89.68-89.83,1.05-56.88,7.14-171.53,7.17-171.89,1.6-17,3-20.53,3-20.53s60.63,0,147.81,3.5c7.51,1.88,12.56,3.48,15.88-4.71S3313.35,999,3307.12,993.24Zm-473.65,215c11.28-45.11,24.65-74.15,42-91.72,9.68-9.78,16.17-12.68,27.25-12.38,6.68.3,8,.6,12.27,3.7a23.48,23.48,0,0,1,7.49,9c2.69,5.49,2.69,5.79,2.59,25.05,0,16.87-.4,21.56-2.79,34.93-6.49,35.93-17.27,63.38-33.24,84.54-11.87,15.77-24,23.56-39.72,25.35-11.18,1.3-18.07.4-21.06-2.59C2822.09,1278,2824.39,1244.41,2833.47,1208.28Z" transform="translate(-386.65 -258.48)" style="fill:#080405;fill-rule:evenodd"/><path d="M2642,1058.07c-13.67-14.27-27.34-22.85-43.41-27-11.88-3.19-30-3.19-41.22,0-32.24,9-54.4,36.13-72.17,88.43-2.39,7.09-7.28,22.86-10.78,34.94-10.28,35.63-9.28,41.82-9.68-60.39-.4-79-.6-90.12-2.09-96.11-3.11-12.43-11.56-23.91-23.58-28.94-8.89-3.72-19-2.52-28.29-.19-1.75.43-3.46.91-5.13,1.41-8.45,2.48-21.76,5.26-25.24,14.54-.3.8.59,5.89,2.09,11.18s3.3,13.78,4.29,18.77c1.7,8.48,1.8,28.44,2.3,353.32q.14,87.45.32,174.9.13,53.53.38,107.08c.1,17.54.17,35.08.49,52.61.17,9.3.44,15.86,9.66,20.39,20.27,9.94,47.52,7.37,69.26,5.29,14.24-1.36,39.66-6.88,39.66-25.12,0-5.79-1.5-7.88-9.18-12.67l-5.59-3.5-2.2-9.28a573,573,0,0,1-12.67-76.65c-3.11-30.29-1.78-61.2-1.79-91.58,0-42.64-.59-85.36.92-128,.63-17.74,2-35.44,3.56-53.12,7.49-84,22.56-156.9,40.22-194.62,9.28-19.86,21.06-34.83,31.74-40.32,34.11-17.55,51.61,28.37,56.21,53.25,9.3,50.23,9.45,101.73,6,152.55-1.77,25.88-2.63,52.46-7.44,78.22-4.2,22.46-11.07,51.07-29.35,66.56a31.67,31.67,0,0,1-17.49,7.71c-13.52,1.25-22.92-8.54-29.95-18.85-7.28-10.58-10.18-13-16.76-14.07-14.55-2.3-26,14-26.36,26.68-1.5,53.83,71.66,60.94,109.22,47.54,58.79-21,83.19-88.75,93.54-145,9.84-53.48,9.64-109.15,2.61-163C2688.28,1140.93,2673.72,1091.19,2642,1058.07Z" transform="translate(-386.65 -258.48)" style="fill:#080405;fill-rule:evenodd"/><path d="M2309.88,1419.37l-8.49-1.3-.3-167.08-.2-167.08,3.5-3.19c4-3.59,4.49-7.39,1.89-12.88-3.69-7.78-21.06-15.17-44.31-19-9.28-1.4-37-3.79-37.63-3.09-.4.29-2.69,14.57-10.28,63-17.07,109-35.23,188.84-52.5,231.26-15.67,38.63-32.54,58.69-49.2,58.69s-24.76-17.37-29.55-62.48c-6.91-65.14-4.08-131.12-.3-196.38,1.85-32-.1-87.08,26.35-111.23,2.3-2.1,5.29-4.69,6.79-5.89,3.29-2.7,3.49-8.68.6-14.77-6.89-14.17-35.43-28.05-68.07-32.94-13.57-2.09-17.57-1.89-22.06.8-22.75,13.77-34.73,94.12-35.53,236.74-.2,42.52-.2,43-2.5,48.91a99.44,99.44,0,0,0-4.09,14.47c-13,66-26.15,99.91-46.41,119.17-10.48,10-26,15-36.53,11.58-11.18-3.59-19.56-19.16-24.85-46.31-4-20.46-5-35.33-4.89-74.46,0-48.3,2.2-76,9-112.59,2.39-13.2,5.63-25.95,11.48-38.09,3-6.27,9.59-14.23,8.58-21.68-1.19-11.08-11.87-25.36-28-37.43-10.08-7.49-31.54-18.07-41.92-20.76-12.78-3.2-38-2.4-45.71,1.59-2.5,1.3-4.4,4.4-10.28,16.67-9.79,20.46-35.34,85-47.41,120-13.38,38.53-42.32,117.08-45.22,122.77-1.79,3.49-2.09,3.79-2.79,2-.4-1.1-.8-46.61-.8-101.2-.1-98.32-.1-99.31-2.2-103.6-3.79-7.79-16.86-15.38-34.33-19.77-13.57-3.49-30.54-3-45.81,1.2-9.58,2.7-18.47,13.18-28.45,33.74-14.37,29.44-25.35,62.88-43.91,133.24-4.49,16.77-8.49,31.74-9,33.44-.6,1.89-1-47.91-1-132.45l-.1-135.54-3.7-1.6c-5.78-2.39-32.53-9-46.21-11.27-15.47-2.6-29.14-2.8-33.83-.3a16.64,16.64,0,0,0-5.39,4.39c-3.74,5.09-.84,15-.85,20.59-.06,62.27-2.33,119-3.44,178.52l-.7,29.25H1414c-10.38,0-13.38,5.19-19.36,34.13-6.54,31.6-14.69,65.38-34.19,91.94-12.4,16.87-29.35,30.5-49.21,37.47-28,9.84-61.82,7-85.65-11.62a96.23,96.23,0,0,1-25.47-30.81,103.69,103.69,0,0,1-9-23.46,122.3,122.3,0,0,1-3.12-29.48c0-10,.3-18.27.8-18.27s3.39.7,6.69,1.5c10.28,2.5,26.65,2.89,37.43,1.1,12.57-2.2,17.66-3.89,28.94-9.78,17.37-8.89,32-21.76,45.31-39.73,23.86-31.94,41-78,44.62-119.37,2.65-30.52-3.46-62.81-21.36-88.13-13.48-19.06-34.34-33.93-56.09-40.12-9.29-2.6-28.45-3.59-39.43-2-44.71,6.59-83.34,43-108.59,102.41-25,59.08-38,136.43-33.13,197.72,6.38,79.24,34.43,131.14,84.83,157.09,36.53,18.67,90.63,22,130.65,7.79,25.35-9,49.9-25.75,68.77-46.91,14-15.67,30.34-42.82,38.23-63.18a65.77,65.77,0,0,1,3.09-7c.4-.5.8,3.3.8,8.29,0,23.15,3.49,63.78,7.08,81.54,2.7,13.48,4.79,17.67,9.89,21,9.48,6,28.84,11.38,50.1,14,22.06,2.7,44.51-.4,50.6-6.88,3.2-3.4,4.09-7.79,4.09-21.06,0-22.26,5.49-74.76,11.58-110.79,6.29-37.43,16.17-82.14,22.56-102.2,6.09-19.17,12.17-31.14,14.77-29.55,2.89,1.8,3.29,9.79,4,88.83.8,84.74,1.2,92.92,5.59,110.09,6,23.86,18.37,36.73,40.13,41.82,15,3.45,38.82,4.87,53-1.82,12-5.66,10.14-18.27,11.85-29.38,2.42-15.75,6-31.37,9.71-46.85,4.59-19.16,19.26-70.66,24.45-86.13,7.39-22.06,30.35-77,40.13-96.12,4.39-8.78,5.29-10,5.59-7.68.2,1.49-1.1,22-2.8,45.41-4.24,56.17-6.13,117.14,12,171.27,14,41.82,39,68.37,72.16,76.65,46.7,11.68,82.67-13.54,106.59-52,5.49-8.78,17.07-32.44,23-46.61,1.9-4.59,3.59-8.28,3.89-8.28s1.3,3.49,2.3,7.69c4.25,17.39,13.6,37.18,23.54,52.48,31.71,48.85,100.91,64,137.51,12.8,17.71-24.8,26.63-55.06,35.5-83.82,2.68-8.66,5.21-17.36,7.66-26.08l5-17.47v70.87l.1,70.86-5.39,3.79c-27.85,19.27-59.89,51.9-85.54,87-52.9,72.36-84.84,157.79-88.33,236.84-2,45.14,5,94.3,43.13,123.83,52.83,41,127.2,16,164.09-33.95,41.32-55.89,51.1-129.46,57.64-196.79q3.87-39.88,3.92-80c.1-65.87.5-121.17.8-122.86.7-3.9,3-4.89,14-6.39,5.14-.7,11-1.59,15.26-4.86,7.07-5.46,7.11-18,2.5-25C2329.44,1425.16,2321.25,1421.16,2309.88,1419.37Zm-1101.19-260.7c5.89-20.46,9.29-29.44,16.37-44.12,7.69-15.77,15.47-26.94,24.65-35.43,9.55-8.81,25.31-13,36-5.94a21.7,21.7,0,0,1,6.87,7.48c6.94,12.17,5.27,26.83,3.91,40.16-3.61,35.26-16,71.62-32,99.87-6.2,11-16.45,21.56-28.1,27-11.08,5.19-29.84,6.68-36,2.79C1192.12,1245.3,1196,1202.58,1208.69,1158.67Zm1001.38,496.54c-1.9,53.3-8.59,98.91-19,130-7.58,22.76-19.66,42.12-31,49.91-15.77,10.88-38.22,8.08-49.4-6-10-12.68-14.07-25.65-15.37-49.11-5-88.83,47.11-222.07,107.29-274.67l8-7,.3,63.77C2211.07,1597.13,2210.67,1639,2210.07,1655.21Z" transform="translate(-386.65 -258.48)" style="fill:#080405;fill-rule:evenodd"/><path d="M1838.74,260.47c-12.4,4.4-23.2,12.3-32.9,24.2-12.2,14.9-21.8,34.4-25.6,52-2.2,10.1-1.6,26.9,1.4,37.1,9.2,31.3,35.9,54.6,62.6,54.7,16.6.1,31.3-6.4,44.7-19.6,18.4-18.1,26.3-42.3,23.7-73s-15.5-56.2-34.8-69c-8.6-5.7-14.8-7.8-24.6-8.3C1846.74,258.27,1844,258.67,1838.74,260.47Z" transform="translate(-386.65 -258.48)" style="fill:#080405;fill-rule:evenodd"/><path d="M1682.74,311c-12.7,2.4-28.1,16.1-36.7,32.8-15.7,30.5-18.2,66.9-6.2,90.6,8.7,17.3,22.1,30.9,38,38.4,10,4.6,17.8,6.6,27.4,6.7,27.3.3,51.2-21,59.6-53,3-11.4,2.8-28.6-.4-41.2-10-38.6-32.7-66.3-60.3-73.4A61.89,61.89,0,0,0,1682.74,311Z" transform="translate(-386.65 -258.48)" style="fill:#080405;fill-rule:evenodd"/><path d="M2004.84,327.37c-18.6,3.6-39,15.2-55.5,31.6-19.4,19.1-27.6,38.9-26.3,63.3,1.7,32.8,20.6,58.7,46.7,64.1,9.4,2,25.1.7,35.2-2.8,24-8.3,41.3-26.1,51.9-53.1,6.1-15.7,8.2-26.2,8.2-42.2.1-15-1.3-22-6.3-32.9-8.9-18.9-24-29.3-42.4-29A83.4,83.4,0,0,0,2004.84,327.37Z" transform="translate(-386.65 -258.48)" style="fill:#080405;fill-rule:evenodd"/><path d="M1836.24,454.87c-42.7,4.5-84.8,21.5-116.6,47.1-10.2,8.3-25.3,24.2-31.7,33.6-19.5,28.3-24.4,59.9-14.1,91.7,5.2,16,16.9,34.6,31.1,49.6,28,29.5,72.8,51.7,116.7,57.8,14.6,2.1,46.4,2.1,63.6.1,33.7-4,60.9-14.6,79.6-31.3,10.4-9.2,21.2-26.7,25.7-41.2,3.5-11.7,4.7-20.9,4.6-38-.2-45.8-17.4-92.2-45.9-124-20.6-22.9-43.5-36.7-71.5-43.1C1869.34,455.27,1845.34,454,1836.24,454.87Z" transform="translate(-386.65 -258.48)" style="fill:#080405;fill-rule:evenodd"/><path d="M2071.74,481.37c-10.6,2.3-25,7.6-32.5,12.1-29.9,18.1-43.6,58.7-29.7,88.1,13.5,28.5,54.4,37.9,87.2,20,17.5-9.5,33.8-27.1,42.9-46.4,6-12.5,7.4-19.2,6.9-32.9-.4-10.5-.7-12.1-3.7-18.4-5.7-11.8-14.9-18.8-29.7-22.6C2102.74,478.57,2084.84,478.67,2071.74,481.37Z" transform="translate(-386.65 -258.48)" style="fill:#080405;fill-rule:evenodd"/></svg>