<svg xmlns="http://www.w3.org/2000/svg" xmlns:xlink="http://www.w3.org/1999/xlink" width="94.98" height="28" viewBox="0 0 94.98 28">
  <defs>
    <linearGradient id="linear-gradient" x1="0.915" y1="6.614" x2="-0.383" y2="5.945" gradientUnits="objectBoundingBox">
      <stop offset="0" stop-color="#00a0ff"/>
      <stop offset="0.007" stop-color="#00a1ff"/>
      <stop offset="0.26" stop-color="#00beff"/>
      <stop offset="0.512" stop-color="#00d2ff"/>
      <stop offset="0.76" stop-color="#00dfff"/>
      <stop offset="1" stop-color="#00e3ff"/>
    </linearGradient>
    <linearGradient id="linear-gradient-2" x1="1.076" y1="17.098" x2="-1.305" y2="17.098" gradientUnits="objectBoundingBox">
      <stop offset="0" stop-color="#ffe000"/>
      <stop offset="0.409" stop-color="#ffbd00"/>
      <stop offset="0.775" stop-color="orange"/>
      <stop offset="1" stop-color="#ff9c00"/>
    </linearGradient>
    <linearGradient id="linear-gradient-3" x1="0.862" y1="10.863" x2="-0.501" y2="9.093" gradientUnits="objectBoundingBox">
      <stop offset="0" stop-color="#ff3a44"/>
      <stop offset="1" stop-color="#c31162"/>
    </linearGradient>
    <linearGradient id="linear-gradient-4" x1="-0.188" y1="13.583" x2="0.421" y2="12.793" gradientUnits="objectBoundingBox">
      <stop offset="0" stop-color="#32a071"/>
      <stop offset="0.068" stop-color="#2da771"/>
      <stop offset="0.476" stop-color="#15cf74"/>
      <stop offset="0.801" stop-color="#06e775"/>
      <stop offset="1" stop-color="#00f076"/>
    </linearGradient>
  </defs>
  <g id="그룹_82" data-name="그룹 82" transform="translate(0 0)">
    <rect id="사각형_23" data-name="사각형 23" width="94.98" height="27.815" rx="5" transform="translate(0 0)"/>
    <g id="그룹_78" data-name="그룹 78" transform="translate(0 0)">
      <g id="그룹_77" data-name="그룹 77">
        <path id="패스_25" data-name="패스 25" d="M101.462,10.56a2.951,2.951,0,0,1,2.955,2.94v21a2.951,2.951,0,0,1-2.955,2.94H13.518a2.951,2.951,0,0,1-2.955-2.94v-21a2.951,2.951,0,0,1,2.955-2.94h87.944m0-.56H13.518A3.519,3.519,0,0,0,10,13.5v21A3.519,3.519,0,0,0,13.518,38h87.944a3.519,3.519,0,0,0,3.518-3.5v-21a3.519,3.519,0,0,0-3.518-3.5Z" transform="translate(-10 -10)" fill="#a6a6a6"/>
      </g>
    </g>
    <path id="패스_26" data-name="패스 26" d="M70.811,30.48a3.1,3.1,0,1,0,3.115,3.1A3.059,3.059,0,0,0,70.811,30.48Zm0,4.983a1.885,1.885,0,1,1,1.751-1.88A1.8,1.8,0,0,1,70.811,35.463Zm-6.8-4.983a3.1,3.1,0,1,0,3.115,3.1A3.059,3.059,0,0,0,64.016,30.48Zm0,4.983a1.885,1.885,0,1,1,1.751-1.88A1.8,1.8,0,0,1,64.016,35.463Zm-8.084-4.031v1.316h3.15a2.747,2.747,0,0,1-.716,1.657,3.225,3.225,0,0,1-2.433.964,3.5,3.5,0,0,1,0-7.005,3.356,3.356,0,0,1,2.374.94l.929-.929a4.593,4.593,0,0,0-3.3-1.329,4.82,4.82,0,1,0,0,9.639,4.4,4.4,0,0,0,3.361-1.352,4.35,4.35,0,0,0,1.14-3.08,4.253,4.253,0,0,0-.071-.822ZM88.99,32.454a2.884,2.884,0,0,0-2.657-1.974,2.949,2.949,0,0,0-2.927,3.1,3.037,3.037,0,0,0,3.08,3.1,3.086,3.086,0,0,0,2.586-1.375l-1.058-.706a1.773,1.773,0,0,1-1.528.858,1.579,1.579,0,0,1-1.505-.94l4.149-1.717Zm-4.232,1.035a1.7,1.7,0,0,1,1.622-1.81,1.2,1.2,0,0,1,1.152.658ZM81.385,36.5h1.363V27.376H81.385Zm-2.234-5.325H79.1a2.151,2.151,0,0,0-1.634-.693,3.106,3.106,0,0,0,0,6.206,2.114,2.114,0,0,0,1.634-.706h.047v.447c0,1.187-.634,1.822-1.657,1.822a1.717,1.717,0,0,1-1.564-1.105l-1.187.494a2.957,2.957,0,0,0,2.751,1.834c1.6,0,2.951-.94,2.951-3.232V30.667H79.151Zm-1.563,4.29a1.887,1.887,0,0,1,0-3.761,1.9,1.9,0,0,1,0,3.761Zm17.789-8.086H92.115V36.5h1.361V33.042h1.9a2.837,2.837,0,1,0,0-5.666Zm.035,4.4H93.476V28.646h1.936a1.564,1.564,0,1,1,0,3.126Zm8.414-1.31a2.557,2.557,0,0,0-2.43,1.4l1.209.5a1.29,1.29,0,0,1,1.244-.669,1.311,1.311,0,0,1,1.432,1.174v.093a3.012,3.012,0,0,0-1.42-.352c-1.3,0-2.629.716-2.629,2.053a2.108,2.108,0,0,0,2.265,2.007,1.921,1.921,0,0,0,1.737-.892h.047v.7H106.6v-3.5A2.5,2.5,0,0,0,103.826,30.463Zm-.164,5c-.447,0-1.068-.223-1.068-.774,0-.7.774-.974,1.443-.974a2.429,2.429,0,0,1,1.244.3A1.65,1.65,0,0,1,103.662,35.462Zm7.721-4.8-1.561,3.955h-.047l-1.62-3.955h-1.467l2.429,5.527-1.385,3.075h1.42l3.744-8.6ZM99.12,36.5h1.361V27.377H99.12Z" transform="translate(-25.117 -15.794)" fill="#fff"/>
    <g id="그룹_80" data-name="그룹 80" transform="translate(7.277 4.617)">
      <path id="패스_27" data-name="패스 27" d="M20.31,17.518a1.464,1.464,0,0,0-.337,1.025V34.68a1.463,1.463,0,0,0,.337,1.025l.054.053L29.4,26.718v-.213l-9.039-9.04Z" transform="translate(-19.973 -17.228)" fill="url(#linear-gradient)"/>
      <path id="패스_28" data-name="패스 28" d="M35.911,31.966,32.9,28.951v-.213l3.014-3.014.068.039,3.57,2.028a1.108,1.108,0,0,1,0,2.106l-3.57,2.028Z" transform="translate(-23.468 -19.461)" fill="url(#linear-gradient-2)"/>
      <path id="패스_29" data-name="패스 29" d="M32.61,33.083,29.528,30l-9.093,9.093a1.187,1.187,0,0,0,1.517.045L32.61,33.083" transform="translate(-20.098 -20.618)" fill="url(#linear-gradient-3)"/>
      <path id="패스_30" data-name="패스 30" d="M32.61,23.442,21.952,17.386a1.187,1.187,0,0,0-1.517.045l9.093,9.093Z" transform="translate(-20.098 -17.14)" fill="url(#linear-gradient-4)"/>
      <g id="그룹_79" data-name="그룹 79" transform="translate(0 12.398)">
        <path id="패스_31" data-name="패스 31" d="M32.542,34.132,21.952,40.149a1.215,1.215,0,0,1-1.462.008h0l-.055.054h0l.054.053h0a1.215,1.215,0,0,0,1.462-.008L32.61,34.2Z" transform="translate(-20.098 -34.132)" opacity="0.2" style="isolation: isolate"/>
        <path id="패스_32" data-name="패스 32" d="M20.31,41.938a1.463,1.463,0,0,1-.337-1.025v.107a1.461,1.461,0,0,0,.337,1.024l.055-.054Z" transform="translate(-19.973 -35.965)" opacity="0.12" style="isolation: isolate"/>
      </g>
      <path id="패스_33" data-name="패스 33" d="M40.667,30.948l-3.638,2.067.068.068,3.57-2.028A1.281,1.281,0,0,0,41.432,30h0A1.358,1.358,0,0,1,40.667,30.948Z" transform="translate(-24.584 -20.618)" opacity="0.12" style="isolation: isolate"/>
      <path id="패스_34" data-name="패스 34" d="M21.827,17.493l14.229,8.084a1.358,1.358,0,0,1,.765.947h0a1.279,1.279,0,0,0-.765-1.054L21.827,17.386c-1.02-.579-1.854-.1-1.854,1.07v.107C19.973,17.395,20.807,16.913,21.827,17.493Z" transform="translate(-19.973 -17.14)" fill="#fff" opacity="0.25" style="isolation: isolate"/>
    </g>
    <g id="그룹_81" data-name="그룹 81" transform="translate(28.096 3.909)">
      <path id="패스_35" data-name="패스 35" d="M51.824,19.77a15.877,15.877,0,0,0,2.946-.219l.066.5a15.484,15.484,0,0,1-3.091.234h-.518v-4.3h3.041v.5H51.824Zm5.236-1.334H55.981v3.478h-.6V15.358h.6v2.581H57.06Z" transform="translate(-51.226 -15.358)" fill="#fff" stroke="#fff" stroke-miterlimit="10" stroke-width="0.2"/>
      <path id="패스_36" data-name="패스 36" d="M66.152,18.738v.489H63.541v1.32h-.606v-1.32H60.223v-.489ZM60.894,16.9c0-.81.9-1.313,2.29-1.313s2.29.5,2.29,1.313-.9,1.313-2.29,1.313S60.894,17.71,60.894,16.9Zm.686,4.419H65.5v.5H60.982v-1.91h.6ZM61.521,16.9c0,.51.664.824,1.663.824s1.663-.314,1.663-.824-.656-.831-1.663-.831S61.521,16.383,61.521,16.9Z" transform="translate(-53.659 -15.42)" fill="#fff" stroke="#fff" stroke-miterlimit="10" stroke-width="0.2"/>
      <path id="패스_37" data-name="패스 37" d="M75.017,20.78v.489H69.074V20.78h2.662V19.547H69.817v-2.02H73.7v-1.02H69.8v-.489h4.477v1.99H70.408v1.057h4.025v.482H72.341V20.78Z" transform="translate(-56.052 -15.536)" fill="#fff" stroke="#fff" stroke-miterlimit="10" stroke-width="0.2"/>
      <path id="패스_38" data-name="패스 38" d="M84.368,20.743v.5H78.432v-.5ZM83.683,19.2H79.192V16.178h4.426v.5H79.781v2.042h3.9Z" transform="translate(-58.582 -15.58)" fill="#fff" stroke="#fff" stroke-miterlimit="10" stroke-width="0.2"/>
      <path id="패스_39" data-name="패스 39" d="M89.508,16.411H91.12v.482H87.262v-.482H88.91v-.97h.6Zm1.305,2.531a1.592,1.592,0,1,1-1.6-1.51A1.486,1.486,0,0,1,90.813,18.942Zm-.568,0a1.025,1.025,0,1,0-1.029,1.006A.985.985,0,0,0,90.245,18.942Zm3.165-.387H92.337V21.9h-.6V15.368h.6v2.684H93.41Z" transform="translate(-60.969 -15.361)" fill="#fff" stroke="#fff" stroke-miterlimit="10" stroke-width="0.2"/>
      <path id="패스_40" data-name="패스 40" d="M99.488,16.065a4.9,4.9,0,0,1-3.04,4.616l-.322-.489a4.324,4.324,0,0,0,2.757-3.646H96.426v-.482Zm1.918-.707V21.9h-.6V15.358Z" transform="translate(-63.366 -15.358)" fill="#fff" stroke="#fff" stroke-miterlimit="10" stroke-width="0.2"/>
    </g>
  </g>
</svg>
