<svg id="ICON_24px_create" data-name="ICON / 24px / create" xmlns="http://www.w3.org/2000/svg" width="24" height="24" viewBox="0 0 24 24">
  <path id="Fill_1009" data-name="Fill 1009" d="M3.731,16H.722A.723.723,0,0,1,0,15.278V12.268a2.148,2.148,0,0,1,.634-1.531l10.1-10.1a2.165,2.165,0,0,1,3.061,0L15.367,2.2a2.168,2.168,0,0,1,0,3.062l-10.1,10.1A2.155,2.155,0,0,1,3.731,16ZM9.382,4.03h0L1.655,11.758a.717.717,0,0,0-.211.51v2.289H3.731a.718.718,0,0,0,.511-.211l7.727-7.727L9.382,4.03Zm2.887-2.587a.719.719,0,0,0-.511.211L10.4,3.01,12.99,5.6l1.356-1.356a.724.724,0,0,0,0-1.02L12.778,1.654A.716.716,0,0,0,12.268,1.443Z" transform="translate(4 4)" fill="#090909"/>
</svg>
